# xmcd CD database file
#
# Track frame offsets:
#	150
#	15637
#	42660
#
# Disc length: 798 seconds
#
# Revision: 0
# Processed by: cddbd v1.5.1PL0 Copyright (c) Steve Scherf et al.
# Submitted via: CdAid (MTCDDB.DLL V2003.12.21)
#
DISCID=1f031c03
DTITLE=Jennifer Lopez - Jenny From THe Block (The Remixes)
DYEAR=2002
DGENRE=R&B
TTITLE0=Jenny From THe Block (Seismic Crew's Latin Disco Trip Radio Edit)
TTITLE1=Jenny From THe Block (Everbots Showtime Mix)
TTITLE2=Jenny From THe Block (Next Level Radio Edit)
EXTD=ID3G:  14 YEAR: 2002
EXTT0=
EXTT1=
EXTT2=
PLAYORDER=
